<?xml version="1.0" encoding="utf-8"?>
<!-- Generator: Adobe Illustrator 26.0.0, SVG Export Plug-In . SVG Version: 6.00 Build 0)  -->
<svg version="1.1" id="Calque_1" xmlns="http://www.w3.org/2000/svg" xmlns:xlink="http://www.w3.org/1999/xlink" x="0px" y="0px"
	 viewBox="0 0 765.75 450.42" style="enable-background:new 0 0 765.75 450.42;" xml:space="preserve">
<style type="text/css">
	.st0{fill:#F0E9D6;}
</style>
<g>
	<path class="st0" d="M215.57,10.27c0-2.44,0-4.6,0-6.77c0-1.68,0.12-3.43,2.3-3.5c2.25-0.08,2.39,1.65,2.36,3.35
		c-0.01,0.8,0,1.6,0,2.4c0,68.61,0,137.22,0,205.83c0,1.29,0,2.59,0,4.69c2.3-1.47,4.37-2.42,5.97-3.89
		c5.53-5.07,10.95-10.25,12.16-18.28c0.13-0.84,1.84-2.03,2.78-2c0.89,0.03,2.27,1.34,2.5,2.3c2.48,10.44,9.32,17.32,18.49,21.84
		c10.02,4.94,21.06,5.93,32.06,6.55c4.68,0.26,9.38,0.29,14.08,0.29c130.09,0.01,260.19,0.02,390.28-0.03
		c3.77,0,7.59-0.36,11.31-1.02c12.73-2.27,18.82-9.64,21.81-24.41c0.1-0.48-0.07-1.08,0.14-1.47c0.39-0.72,0.98-1.33,1.48-1.98
		c0.45,0.68,1.05,1.3,1.31,2.05c1.72,4.95,2.85,10.19,5.15,14.85c4.18,8.49,12.35,10.68,20.95,11.73c0.2,0.02,0.4,0.04,0.6,0.02
		c1.9-0.15,3.17,0.56,3.21,2.59c0.03,1.96-1.3,2.34-3,2.5c-2.58,0.25-5.16,0.63-7.68,1.2c-10.99,2.5-15.76,10.71-18.63,20.57
		c-0.44,1.51-0.39,3.17-0.78,4.7c-0.19,0.76-0.86,1.39-1.32,2.08c-0.5-0.74-1.22-1.41-1.48-2.23c-1.25-3.96-2.07-8.08-3.59-11.92
		c-4.07-10.26-12.68-13.67-22.84-14.5c-0.5-0.04-1-0.01-1.5-0.01c-133.19,0-266.38-0.06-399.57,0.1c-12.74,0.02-25.51,1-37.79,5.19
		c-9.31,3.17-15.79,9.48-20.67,17.7c-0.89,1.5-1.42,3.31-1.74,5.05c-0.34,1.87-0.89,3.41-3.04,3.34c-1.92-0.07-2.33-1.51-2.8-3.24
		c-2.57-9.53-9.28-15.58-17.85-21.17c0,2.1,0,3.26,0,4.42c0,68.81,0,137.62-0.02,206.43c0,1.93,0.85,4.88-2.35,4.8
		c-3.07-0.08-2.2-2.99-2.27-4.95c-0.09-2.59-0.1-5.2,0-7.79c0.07-1.71-0.45-2.42-2.28-2.66c-45.03-5.82-84.87-23.71-119.85-52.38
		c-21.18-17.36-36.87-39.16-48.85-63.67c-10.85-22.2-18.8-45.49-25.36-69.25c-2.41-8.73-3-17.69-2.41-26.72
		c0.15-2.21,0.27-4.61,2.86-5.4c2.68-0.81,4.26,1.01,5.68,2.92c3.69,4.95,7.39,9.88,11.26,15.05c1.69-3.13,1.69-5.94-0.37-8.52
		c-2.83-3.55-2.63-7.21-0.56-10.88c3.79-6.71,9.43-10.48,17.35-10.07c1.52,0.08,3.16,0.59,4.49,1.34c3.02,1.71,3.43,4.85,0.54,6.78
		c-10.23,6.85-13.81,17.39-16.51,28.51c-0.56,2.31-1.21,4.61-1.92,7.31c-4.02-4.29-7.74-8.26-12.05-12.86
		c0.83,14.58,4.41,27.71,9.04,40.69c0.38-4.39,0.62-8.79,1.16-13.16c2.63-20.95,12.02-38.64,26.36-53.87
		c1.16-1.23,2.4-2.58,3.89-3.22c1.29-0.55,3.24-0.68,4.42-0.06c1.04,0.54,1.98,2.39,1.94,3.62c-0.08,2.35-0.84,4.68-1.42,7
		c-1.49,5.93-2.75,11.88-1.52,18.04c1.02,5.1,3.54,9.05,8.45,11.22c1.95,0.86,3.12,0.29,3.35-1.81c0.22-1.98,0.47-3.98,0.38-5.96
		c-0.34-6.98-0.79-13.95-1.26-20.92c-0.68-9.97,0.82-19.5,6.08-28.87c-5.91,2.08-11.31,3.96-16.69,5.87
		c-15.41,5.47-30.75,11.15-46.27,16.29c-4.22,1.4-9.07,1.9-13.5,1.47c-8.93-0.87-13.76-7.92-11.49-16.66
		c1.26-4.83,3.11-9.83,5.95-13.87c8.77-12.48,17.9-24.72,27.39-36.66c4.35-5.47,7.72-11.35,10.84-17.48
		c19.78-38.97,48.73-69.06,87.21-89.9c15.67-8.49,32.17-14.92,49.29-19.87c2.1-0.61,4.27-2.13,5.67-3.84
		c6.35-7.7,14.78-9.78,25.76-5.98C213.51,9.54,214.34,9.84,215.57,10.27z M215.55,193.01c0-8.46,0.03-16.63-0.06-24.8
		c-0.01-0.66-0.76-1.61-1.4-1.91c-9.82-4.61-20.05-7.74-30.92-8.73c-8.96-0.81-17.32,0.97-25.71,4.1
		c-13.74,5.12-27.66,9.76-39.97,17.99c-13.7,9.16-21.34,21.96-22,38.42c-0.31,7.74,0.51,15.53,0.92,23.3
		c0.33,6.3,0.61,12.6-1.44,18.68c-2.63,7.78-9.89,10.62-17.03,6.59c-2.39-1.35-4.4-3.39-6.5-5.21c-3.99-3.46-7.78-7.16-11.92-10.43
		c-2.76-2.18-5.02-1.46-5.97,1.86c-1.28,4.48-2.65,9.08-2.92,13.68c-0.77,12.85,0.75,25.55,4.77,37.79
		c13.54,41.28,40.33,68.98,83.06,80c3.12,0.8,6.57,1.01,9.77,0.65c6.46-0.72,10-5.34,12.54-10.8c5.88-12.61,6.14-25.83,3.97-39.27
		c-2.16-13.4-7.45-25.8-12.4-38.31c-3.95-9.99-8.05-19.95-11.24-30.2c-2.59-8.34,0.41-13.12,8.6-16.41
		c5.81-2.33,5.81-2.33,5.84-8.77c0-0.2-0.01-0.4,0-0.6c0.67-13.28,3.23-26.05,11.73-36.72c9.06-11.37,20.55-17.62,35.61-14.44
		C207.04,190.37,211.1,191.76,215.55,193.01z M215.56,99.18c-0.18-0.02-0.36-0.04-0.55-0.07c-0.45,1.18-0.85,2.39-1.37,3.54
		c-3.24,7.16-8.47,12.06-16.29,13.65c-4.62,0.94-6.75-0.89-7.11-5.59c-0.44-5.77-0.66-11.56-1.35-17.3
		c-0.7-5.8-1.33-11.71-2.99-17.28c-1.79-5.98-5.04-7.26-11.17-5.76c-4.36,1.07-8.68,2.29-13.01,3.44
		c-17.38,4.62-34.49,10-50.34,18.69c-30.37,16.67-54.26,40.08-71.94,69.8c-4.42,7.43-9.07,14.82-10.93,23.48
		c-0.96,4.47,0.25,5.65,4.61,4.25c6.36-2.04,12.74-4.03,18.98-6.4c34.21-12.94,68.32-26.12,102.58-38.93
		c19.32-7.22,38.86-13.86,58.26-20.86c1.05-0.38,2.49-1.66,2.51-2.56C215.65,113.94,215.56,106.56,215.56,99.18z M185.01,22.19
		c-29.23,8.05-55.58,20.67-79.05,39.1c-20.99,16.48-54.42,57.95-54.67,67.9c0.29-0.15,0.58-0.24,0.79-0.42
		c2.39-2.12,4.76-4.26,7.14-6.38c26.2-23.27,55.98-40.56,88.69-52.92c8.57-3.24,17.14-6.52,25.9-9.17
		c6.86-2.08,12.35,0.57,15.22,7.16c2.77,6.36,4.8,13.05,7.15,19.6c0.64,1.77,1.25,3.56,2.06,5.87c0.66-1.01,0.92-1.31,1.07-1.65
		c3.98-9.1,3.57-18.09-1.14-26.75c-2.47-4.55-5.43-8.84-8.21-13.22c-4.55-7.15-6.53-14.93-5.74-23.38
		C184.4,26.13,184.71,24.38,185.01,22.19z M215.57,254.37c0-3.29,0-6.59,0-9.88c0-13.87-0.06-27.75,0.06-41.62
		c0.02-2.38-0.69-3.57-3.01-3.68c-4.46-0.21-9.05-1.13-13.35-0.39c-13.51,2.32-21.09,11.34-24.61,24.01
		c-3.47,12.49-2.89,25.12-0.01,37.63c3.93,17.11,11.2,32.53,23.67,45.23c3.96,4.03,8.69,4.92,14.01,4.1
		c2.28-0.35,3.33-1.26,3.31-3.89C215.5,288.71,215.56,271.54,215.57,254.37z M155.65,387.22c0.81,0.29,1.07,0.43,1.34,0.47
		c19.45,2.4,38.41,0.29,56.85-6.32c0.78-0.28,1.61-1.64,1.64-2.53c0.17-4.48,0.28-8.99,0-13.46c-0.16-2.49-0.55-5.3-1.83-7.34
		c-5.81-9.28-11.42-18.76-18.12-27.38c-17.37-22.35-33.69-45.11-38.86-73.83c-0.11-0.6-0.88-1.38-1.48-1.53
		c-5.7-1.43-11.01,3.66-9.62,9.37c0.91,3.76,2.09,7.49,3.5,11.1c4.6,11.78,9.51,23.44,14,35.26c6.02,15.84,9.73,32.06,6.74,49.16
		c-1.52,8.73-3.53,17.24-10.39,23.62C158.28,384.87,157.11,385.9,155.65,387.22z M241.42,211.11c-4.56,3.94-8.82,7.64-13.11,11.31
		c-1.41,1.21-1.49,5.17-0.09,6.39c4.34,3.76,8.68,7.53,13.15,11.4c4.69-5.83,10.33-11.37,18.45-14.62
		C251.81,222.38,246.21,216.91,241.42,211.11z M187.75,415.12c-0.07,0.26-0.13,0.52-0.2,0.79c0.36,0.18,0.71,0.38,1.08,0.54
		c8.36,3.75,16.89,4.23,25.54,1.14c0.54-0.19,1.25-0.93,1.27-1.44c0.12-3.21,0.06-6.42,0.06-10.14
		C205.82,409.18,196.79,412.15,187.75,415.12z M215.39,44.6c-6.23-0.55-8.48,1.47-7.21,7.16c1.93,8.69,4.37,17.26,6.59,25.89
		c0.21-0.04,0.41-0.08,0.62-0.12C215.39,66.55,215.39,55.57,215.39,44.6z M195.68,148.17c7.09,2.33,13.33,4.37,19.66,6.45
		c0-4.41,0-8.44,0-13.17C208.77,143.7,202.62,145.8,195.68,148.17z M183.76,420.6c-0.04,0.29-0.09,0.57-0.13,0.86
		c10.51,2.18,21.02,4.37,31.75,6.6c0-2.51,0-4.26,0-6.27C204.63,423.88,194.2,422.1,183.76,420.6z"/>
	<path class="st0" d="M371.82,126.01c0-11.54,0-22.82,0-34.09c0-6.19-0.14-12.38,0.07-18.57c0.08-2.47-0.65-4.14-2.6-5.55
		c-1.58-1.15-3.01-2.51-5.01-4.22c12.59,0,24.49,0,37.05,0c-2.07,1.8-3.94,3.18-5.49,4.86c-0.9,0.98-1.81,2.44-1.81,3.68
		c-0.09,40.13-0.09,80.26-0.01,120.39c0,1.17,0.8,2.59,1.66,3.45c1.74,1.74,3.79,3.18,6.16,5.11c-25.23,0-49.89,0-75.2,0
		c2.17-1.89,4.12-3.35,5.76-5.09c0.84-0.9,1.62-2.31,1.62-3.49c0.08-40.13,0.08-80.26,0-120.39c0-1.19-0.78-2.6-1.63-3.5
		c-1.6-1.7-3.52-3.09-5.81-5.04c12.66,0,24.64,0,37.29,0c-2.3,1.95-4.26,3.41-5.97,5.13c-0.81,0.81-1.6,2.1-1.6,3.18
		c-0.1,17.57-0.07,35.14-0.06,52.71c0,0.39,0.08,0.79,0.14,1.43C361.42,126.01,366.44,126.01,371.82,126.01z M371.82,135.55
		c-5.36,0-10.38,0-15.39,0c-0.09,0.5-0.18,0.79-0.18,1.07c-0.01,18.74-0.03,37.49,0.02,56.23c0,0.8,0.28,1.88,0.83,2.35
		c2.32,1.99,4.79,3.79,7.23,5.68c1.8-1.52,3.31-2.99,5.02-4.18c1.9-1.32,2.6-2.9,2.54-5.25c-0.17-5.98-0.06-11.96-0.06-17.95
		C371.82,160.96,371.82,148.41,371.82,135.55z"/>
	<path class="st0" d="M613.3,131.9c0.12,37.97-31.18,69.91-68.59,70.01c-39.52,0.1-70.84-30.18-70.92-68.56
		c-0.08-39.06,30.83-70.51,69.4-70.6C581.97,62.66,613.18,93.45,613.3,131.9z M528.75,187.74c2.09-0.13,4.2-0.12,6.27-0.41
		c32.67-4.58,60.04-32.29,63.71-65.07c1.68-14.98-2.61-28.2-15.02-37.65c-10.42-7.93-22.51-9.4-35.04-6.95
		c-30.83,6.01-56.4,32.98-60.13,64.04C485.29,168.68,503.04,187.88,528.75,187.74z"/>
	<path class="st0" d="M684.53,338.26c0.01,38.51-31.21,69.83-69.64,69.87c-38.89,0.04-69.82-30.73-69.8-69.43
		c0.02-38.63,31.33-69.8,70.03-69.73C653.54,269.03,684.52,299.96,684.53,338.26z M600.45,393.95c2.01-0.14,4.33-0.15,6.59-0.49
		c32.7-4.92,59.89-33.13,63.07-66.02c1.36-14.07-2.74-26.61-14.06-35.79c-10.37-8.4-22.64-10.59-35.35-7.82
		c-30.36,6.61-49.86,25.54-59.15,54.85c-3.69,11.63-3.35,23.6,2.41,34.68C571.5,387.87,584.31,393.71,600.45,393.95z"/>
	<path class="st0" d="M318.47,269.28c0,14.55,0,28.77,0,42.99c-0.15,0.06-0.3,0.12-0.45,0.18c-1.64-2.99-3.24-5.99-4.94-8.95
		c-4.36-7.62-8.66-15.29-14.97-21.56c-4.65-4.61-10.29-6.46-16.7-5.53c-10.43,1.51-16.56,13.11-11.38,22.63
		c2.54,4.67,6.51,8.83,10.57,12.37c7.9,6.87,16.42,13.01,24.49,19.67c9.85,8.12,16.87,18.07,18.53,31.1
		c1.24,9.67,0.83,19.19-3.96,27.97c-7.12,13.05-20.91,19.64-36.39,17.74c-7.1-0.87-13.93-2.58-20.21-6.06
		c-1.64-0.91-2.63-0.59-3.85,0.6c-1.85,1.79-3.87,3.42-6.21,5.45c0-16.43,0-32.39,0-49.17c0.87,1.73,1.44,2.91,2.04,4.07
		c5.57,10.69,11.94,20.81,21.33,28.6c2.65,2.2,5.66,4.18,8.82,5.54c12.1,5.19,22.86-1.69,23.62-14.81c0.5-8.6-3.59-14.99-9.93-20.09
		c-8.47-6.81-17.24-13.25-25.69-20.1c-7.04-5.7-12.92-12.45-16.93-20.7c-7.41-15.27-2.92-35.8,10.27-45.45
		c10.35-7.58,21.96-8.17,34.03-5.2c0.39,0.1,0.77,0.2,1.15,0.32c2.84,0.94,5.75,2.79,8.5,2.57
		C312.93,273.23,315.46,270.9,318.47,269.28z"/>
	<path class="st0" d="M468.58,269.7c12.96,0,25.09,0,37.97,0c-2.14,1.8-3.7,3.42-5.55,4.58c-2.07,1.3-2.27,2.92-1.96,5.08
		c1.85,13.14,3.61,26.29,5.41,39.43c2.55,18.58,5.1,37.16,7.66,55.74c0.05,0.38,0.13,0.77,0.6,1.17c1.01-7.57,2.03-15.13,3.04-22.7
		c3.11-23.33,6.19-46.67,9.4-70c0.32-2.36-0.15-3.9-2.02-5.35c-3.05-2.37-5.92-4.97-9.31-7.85c10.95,0,21.36,0,32.39,0
		c-3.44,2.95-6.66,5.51-9.62,8.36c-1.1,1.06-2.05,2.7-2.26,4.19c-4.62,33.9-9.13,67.81-13.65,101.72
		c-1.03,7.71-2.01,15.42-3.03,23.28c-7.83,0-15.48,0-23.5,0c-0.79-5.73-1.59-11.51-2.38-17.3c-2.9-21.45-5.8-42.9-8.7-64.35
		c-2.09-15.42-4.23-30.83-6.21-46.27c-0.29-2.26-1.01-3.9-2.87-5.22C472.31,273.01,470.79,271.56,468.58,269.7z"/>
	<path class="st0" d="M691.38,407.31c15.87-42.88,31.66-85.55,47.64-128.7c-1.42,0-2.46,0-3.5,0c-8.99,0-17.98,0.15-26.96-0.09
		c-2.84-0.08-4.02,0.97-5.02,3.39c-2.11,5.12-4.51,10.13-7.15,15.98c0-9.88,0-18.87,0-28.1c23,0,46.01,0,69.36,0
		c-15.91,42.81-31.79,85.52-47.77,128.53c1.17,0.07,2.01,0.17,2.86,0.17c11.09,0.01,22.17-0.07,33.26,0.07
		c2.3,0.03,3.3-0.77,4.14-2.76c2.22-5.27,4.66-10.45,7.44-15.53c0,8.93,0,17.87,0,27.03C741.03,407.31,716.42,407.31,691.38,407.31z
		"/>
	<path class="st0" d="M406.91,269.86c-3.67,3.03-6.96,5.61-10.07,8.4c-1.03,0.92-1.98,2.28-2.3,3.59
		c-5.79,24.15-11.48,48.31-17.15,72.49c-0.34,1.44-0.4,2.97-0.4,4.46c-0.03,12.78,0.05,25.57-0.07,38.35
		c-0.03,2.65,0.56,4.55,2.91,5.97c1.77,1.07,3.32,2.5,5.49,4.17c-12.92,0-25.2,0-38.08,0c2.14-1.82,4.11-3.25,5.76-4.99
		c0.91-0.96,1.82-2.43,1.83-3.68c0.13-13.58,0.43-27.18-0.08-40.74c-0.22-5.79-2.13-11.53-3.45-17.25
		c-4.71-20.5-9.45-41-14.34-61.46c-0.42-1.76-1.77-3.41-3.03-4.82c-1.42-1.59-3.22-2.83-5.31-4.6c12.94,0,25.24,0,38.35,0
		c-2.58,2.05-4.71,3.59-6.63,5.37c-0.65,0.6-1.22,1.89-1.04,2.68c4.35,18.7,8.82,37.38,13.78,56.09c1.46-6.29,2.91-12.58,4.37-18.87
		c2.55-10.97,5.07-21.95,7.7-32.9c0.4-1.68,0.19-2.7-1.23-3.81c-3.3-2.57-6.42-5.37-10.02-8.43
		C384.97,269.86,395.61,269.86,406.91,269.86z"/>
	<path class="st0" d="M443.37,72.42c0,18.13,0,35.77,0,53.5c2.8,0.82,4.65,0.5,5.83-2.62c1.83-4.82,4.15-9.44,6.68-14.06
		c0,14.18,0,28.35,0,42.53c-0.13,0.05-0.27,0.1-0.4,0.15c-1.97-4.39-4.16-8.7-5.84-13.2c-1.19-3.2-3.03-4.07-6.24-3.02
		c0,18.68,0,37.4,0,56.55c4,0,7.96,0.13,11.9-0.12c0.77-0.05,1.69-1.47,2.14-2.45c2.44-5.21,4.75-10.48,7.54-15.64
		c0,8.97,0,17.94,0,27.09c-16.93,0-33.77,0-51.28,0c2.13-1.88,4.04-3.35,5.66-5.08c0.85-0.91,1.68-2.29,1.68-3.45
		c0.09-40.23,0.08-80.46,0.01-120.69c0-1.09-0.74-2.39-1.53-3.21c-1.64-1.7-3.55-3.15-5.78-5.08c17.39,0,34.25,0,51.29,0
		c0,9.04,0,17.97,0,26.9c-0.13,0.07-0.26,0.13-0.4,0.2c-1-2.19-2.01-4.37-3.01-6.56c-1.53-3.35-2.99-6.74-4.62-10.04
		c-0.36-0.72-1.33-1.58-2.05-1.61C451.19,72.34,447.41,72.42,443.37,72.42z"/>
	<path class="st0" d="M302.95,201.22c-12.47,0-24.14,0-36.5,0c2.17-2.04,4.03-3.61,5.66-5.39c0.72-0.79,1.38-2.01,1.38-3.04
		c0.07-39.64,0.05-79.29,0.04-118.93c0-0.38-0.09-0.76-0.18-1.42c-3.85,0-7.63-0.14-11.38,0.11c-0.79,0.05-1.75,1.41-2.2,2.37
		c-2.48,5.28-4.83,10.62-7.62,15.82c0-9,0-18,0-27.2c21.58,0,43.01,0,64.71,0c0,8.93,0,17.84,0,27.58
		c-1.01-2.03-1.75-3.43-2.41-4.87c-1.82-3.99-3.55-8.02-5.46-11.97c-0.39-0.79-1.43-1.74-2.22-1.78c-3.57-0.19-7.15-0.08-11.14-0.08
		c0,1.48,0,2.74,0,4c0,38.05,0.04,76.09-0.07,114.14c-0.01,2.98,0.74,5.13,3.1,6.86C299.99,198.4,301.16,199.62,302.95,201.22z"/>
	<path class="st0" d="M453.49,269.81c-2.53,1.97-4.66,3.44-6.55,5.17c-0.84,0.77-1.67,2.08-1.68,3.14
		c-0.08,39.54-0.07,79.07-0.06,118.61c0,0.48,0.09,0.96,0.17,1.77c3.98,0,7.85,0.11,11.7-0.1c0.74-0.04,1.69-1.2,2.09-2.05
		c2.53-5.39,4.93-10.84,7.79-16.16c0,8.98,0,17.96,0,27.14c-16.94,0-33.86,0-51.38,0c2.1-1.8,4.01-3.17,5.56-4.87
		c0.96-1.06,1.91-2.63,1.91-3.97c0.1-39.94,0.1-79.87,0-119.81c0-1.35-0.91-2.93-1.85-3.99c-1.5-1.68-3.39-3.02-5.54-4.88
		C428.38,269.81,440.57,269.81,453.49,269.81z"/>
	<path class="st0" d="M425.85,53.98c10.48-5.13,20.26-9.93,30.34-14.87c0,5.14,0,9.87,0,14.87
		C446.35,53.98,436.49,53.98,425.85,53.98z"/>
	<path class="st0" d="M241.19,229.02c2.22,0,4.07-1.79,4.04-3.93c-0.03-2.1-1.97-4.02-4.11-3.9c-2.36,0.13-3.61,1.56-3.8,3.83
		C237.14,227.25,238.94,229.01,241.19,229.02z"/>
	<path class="st0" d="M241.19,229.02c-2.25,0-4.05-1.77-3.87-4c0.18-2.27,1.44-3.7,3.8-3.83c2.14-0.12,4.08,1.8,4.11,3.9
		C245.26,227.23,243.42,229.02,241.19,229.02z"/>
	<path class="st0" d="M537.1,95.95c0.46,0.89,0.99,1.75,1.38,2.67c2.15,5.12,3.86,10.48,6.49,15.34c3.38,6.25,8.98,9.66,16.25,10.09
		c0.64,0.04,1.25,0.67,1.88,1.03c-0.42,0.68-0.68,1.6-1.28,1.99c-5.75,3.73-9.2,9.02-9.37,15.78c-0.13,5.63,0.87,11.28,1.25,16.93
		c0.08,1.11-0.38,2.26-0.6,3.4c-0.81-0.91-1.88-1.69-2.37-2.75c-2.5-5.39-4.39-11.12-7.37-16.22c-3.23-5.53-8.67-8.27-15.15-8.79
		c-0.73-0.06-1.52-0.64-2.06-1.2c-0.15-0.15,0.36-1.36,0.83-1.62c7.7-4.31,10.36-11.31,10.11-19.57c-0.15-4.75-1.16-9.47-1.66-14.22
		c-0.1-0.91,0.34-1.88,0.53-2.81C536.33,95.98,536.72,95.97,537.1,95.95z M543.29,124.36c-1.24,2.36-2.37,4.5-3.49,6.63
		c2.2,1.47,4.23,2.83,6.25,4.18c1.17-2.25,2.26-4.36,3.41-6.58C547.46,127.22,545.51,125.88,543.29,124.36z"/>
	<path class="st0" d="M634.19,333.46c-0.67,0.24-1.4,0.37-2,0.73c-6.57,3.93-9.73,9.92-9.68,17.4c0.04,4.95,0.93,9.9,1.28,14.86
		c0.09,1.27-0.43,2.57-0.67,3.86c-0.79-1.07-1.81-2.05-2.34-3.24c-2-4.55-3.48-9.35-5.81-13.71c-3.5-6.57-9.09-10.38-16.77-10.76
		c-0.65-0.03-1.6-0.61-1.78-1.14c-0.16-0.47,0.38-1.54,0.91-1.84c7.28-4.18,10.1-10.84,9.96-18.78c-0.09-4.85-1.12-9.68-1.58-14.53
		c-0.09-0.98,0.5-2.02,0.78-3.03c0.72,0.77,1.73,1.43,2.11,2.35c1.84,4.4,3.22,9,5.3,13.28c3.55,7.3,9.21,11.85,17.72,12.17
		c0.67,0.02,1.31,0.76,1.96,1.16C633.78,332.63,633.99,333.05,634.19,333.46z M616.21,342.23c1.2-2.25,2.31-4.33,3.49-6.56
		c-2.1-1.42-4.12-2.79-6.2-4.2c-1.2,2.26-2.35,4.41-3.5,6.57C612.11,339.45,614.07,340.78,616.21,342.23z"/>
</g>
</svg>
