<?xml version="1.0" encoding="utf-8"?>
<!-- Generator: Adobe Illustrator 26.0.0, SVG Export Plug-In . SVG Version: 6.00 Build 0)  -->
<svg version="1.1" id="Calque_1" xmlns="http://www.w3.org/2000/svg" xmlns:xlink="http://www.w3.org/1999/xlink" x="0px" y="0px"
	 viewBox="0 0 9.5 81" style="enable-background:new 0 0 9.5 81;" xml:space="preserve">
<style type="text/css">
	.st0{fill:#FDEED8;}
</style>
<path class="st0" d="M4.2,0.5v33.2c-2.6,0.2-4.5,2.5-4.2,5.1c0.1,0.6,0.2,1.2,0.5,1.7C0.2,41.2,0,41.9,0,42.6c0,2.4,1.8,4.4,4.2,4.7
	v33.2c0,0.3,0.2,0.5,0.5,0.5s0.5-0.2,0.5-0.5V47.3c2.4-0.3,4.2-2.3,4.2-4.7c0-0.7-0.2-1.5-0.5-2.1c1.2-2.3,0.3-5.1-2-6.3
	c-0.5-0.3-1.1-0.4-1.7-0.5V0.5C5.3,0.2,5.1,0,4.8,0S4.3,0.2,4.2,0.5L4.2,0.5z M1,38.4c0-1.9,1.4-3.5,3.2-3.7v3.3
	C3.1,38,2,38.6,1.2,39.5C1.1,39.1,1,38.8,1,38.4z M7.8,40.5c-0.1,0.2-0.3,0.3-0.4,0.5c-0.6,0.6-1.3,0.9-2.2,1v-3.2
	C6.3,39,7.2,39.6,7.8,40.5z M4.2,42.1C3.4,42,2.7,41.6,2.1,41c-0.2-0.2-0.3-0.3-0.4-0.5c0.6-0.9,1.5-1.4,2.6-1.6V42.1z M1,42.6
	c0-0.4,0.1-0.8,0.2-1.1c0.1,0.1,0.1,0.2,0.2,0.2c0.8,0.8,1.8,1.2,2.9,1.3v3.2C2.4,46.1,1,44.5,1,42.6z M8.5,42.6
	c0,1.9-1.4,3.5-3.2,3.7v-3.2c1.1-0.1,2.1-0.6,2.9-1.3c0.1-0.1,0.1-0.2,0.2-0.2C8.4,41.9,8.5,42.2,8.5,42.6z M7.4,35.7
	c1,1,1.3,2.5,0.9,3.8c-0.8-0.9-1.9-1.5-3.1-1.6v-3.3C6.1,34.8,6.8,35.1,7.4,35.7z"/>
</svg>
