<svg id="Calque_1" data-name="Calque 1" xmlns="http://www.w3.org/2000/svg" viewBox="0 0 13.84 16.73"><defs><style>.cls-1{fill:#fdeed8;}</style></defs><path class="cls-1" d="M13.6,8.22a3.06,3.06,0,0,1-1.49-.52,2.67,2.67,0,0,1-1-2.2c0-.07-.11-.14-.24-.14s-.24.07-.24.14a2.67,2.67,0,0,1-1,2.2l-.07,0a4.2,4.2,0,0,0-2.1-.09A15.1,15.1,0,0,0,8,3.53c-.73-1.13-.2-1.9-.2-3.53C6.62,3.93,5.84,6.29,5.88,7.65c-1.37-.29-1.39.13-5.74.63-.16,0-.2.24-.05.26,4.17.51,4.05.93,5.52.63A14,14,0,0,0,5,13c.69,1.12,0,2.53.21,3.78,1.15-3.87,1.92-6.21,1.88-7.56A4.67,4.67,0,0,0,9.56,9h0a2.69,2.69,0,0,1,1,2.2c0,.07.1.13.24.13s.24-.06.24-.13a2.68,2.68,0,0,1,1-2.2A3.21,3.21,0,0,1,13.6,8.5c.13,0,.24-.06.24-.14S13.73,8.22,13.6,8.22Z"/></svg>
